<svg width="83" height="83" viewBox="0 0 83 83" fill="none" xmlns="http://www.w3.org/2000/svg">
<circle cx="41.5" cy="41.5" r="40" stroke="#FFF951" stroke-width="3"/>
<g clip-path="url(#clip0)">
<path d="M41.1884 25.0016C33.156 25.0016 26.5935 31.5641 26.5935 39.5966C26.5935 43.7965 28.431 47.839 31.5285 50.569C33.8385 52.879 33.6285 57.8139 33.576 57.8665C33.576 58.1289 33.6285 58.3389 33.8385 58.5489C33.996 58.7064 34.2585 58.8114 34.4685 58.8114H47.8559C48.1184 58.8114 48.3284 58.7064 48.4859 58.5489C48.6434 58.3914 48.7484 58.1289 48.7484 57.8665C48.7484 57.8139 48.4859 52.879 50.7959 50.569C50.8484 50.5165 50.9009 50.464 50.9534 50.4115C53.9983 47.629 55.7833 43.6915 55.7833 39.5966C55.7833 31.5641 49.2209 25.0016 41.1884 25.0016ZM49.5884 49.204C49.5359 49.2565 49.4309 49.3615 49.4309 49.414C47.3834 51.619 47.0159 55.2415 46.9634 56.974H35.361C35.3085 55.2415 34.941 51.4615 32.736 49.204C29.9535 46.789 28.326 43.2715 28.326 39.5441C28.326 32.4566 34.0485 26.7341 41.1359 26.7341C48.2234 26.7341 53.9458 32.4566 53.9458 39.5441C53.9458 43.2715 52.3708 46.789 49.5884 49.204Z" fill="#FFF951"/>
<path d="M41.1361 28.7291C40.6637 28.7291 40.2437 29.1491 40.2437 29.6216C40.2437 30.0941 40.6637 30.5141 41.1361 30.5141C46.4386 30.5141 50.6911 34.8191 50.6911 40.0691C50.6911 40.5416 51.1111 40.9616 51.5836 40.9616C52.0561 40.9616 52.4761 40.5416 52.4761 40.0691C52.5286 33.8216 47.4361 28.7291 41.1361 28.7291Z" fill="#FFF951"/>
<path d="M46.9634 59.8089H35.3085C34.101 59.8089 33.1035 60.8064 33.1035 62.0139C33.1035 63.2214 34.101 64.2189 35.3085 64.2189H46.9109C48.1709 64.1664 49.1684 63.2214 49.1684 62.0139C49.1684 60.8064 48.1709 59.8089 46.9634 59.8089ZM46.9634 62.3814H35.3085C35.0985 62.3814 34.8885 62.2239 34.8885 61.9614C34.8885 61.6989 35.046 61.5414 35.3085 61.5414H46.9109C47.1209 61.5414 47.3309 61.6989 47.3309 61.9614C47.3309 62.2239 47.1734 62.3814 46.9634 62.3814Z" fill="#FFF951"/>
<path d="M45.2311 65.1114H37.0412C35.8337 65.1114 34.8362 66.1089 34.8362 67.3164C34.8362 68.5239 35.8337 69.5214 37.0412 69.5214H45.2311C46.4386 69.5214 47.4361 68.5239 47.4361 67.3164C47.4361 66.0564 46.4386 65.1114 45.2311 65.1114ZM45.2311 67.6839H37.0412C36.8312 67.6839 36.6212 67.5264 36.6212 67.2639C36.6212 67.0014 36.7787 66.8439 37.0412 66.8439H45.2311C45.4411 66.8439 45.6511 67.0014 45.6511 67.2639C45.6511 67.5264 45.4411 67.6839 45.2311 67.6839Z" fill="#FFF951"/>
<path d="M41.1362 20.6442C41.6611 20.6442 42.0286 20.2242 42.0286 19.7517V13.6617C42.0286 13.1892 41.6086 12.7692 41.1362 12.7692C40.6637 12.7692 40.2437 13.1892 40.2437 13.6617V19.7517C40.2437 20.2242 40.6637 20.6442 41.1362 20.6442Z" fill="#FFF951"/>
<path d="M55.9936 17.2842C55.5736 16.9692 55.0486 17.1267 54.7861 17.4942L51.4261 22.5342C51.1111 22.9542 51.2161 23.5317 51.6361 23.7941C51.7936 23.8991 51.9511 23.9516 52.1086 23.9516C52.4236 23.9516 52.6861 23.7941 52.8436 23.5317L56.2035 18.4917C56.5185 18.1242 56.4136 17.5467 55.9936 17.2842Z" fill="#FFF951"/>
<path d="M30.4786 23.7417C30.6361 23.7417 30.7936 23.6892 30.9511 23.5842C31.3711 23.3217 31.4761 22.7442 31.2136 22.3242L27.9586 17.2317C27.6961 16.8117 27.1186 16.7067 26.6986 16.9692C26.2786 17.2317 26.1736 17.8092 26.4361 18.2292L29.6911 23.3217C29.9011 23.6367 30.1636 23.7417 30.4786 23.7417Z" fill="#FFF951"/>
<path d="M24.1262 29.3066L18.8237 26.4191C18.4037 26.2092 17.8262 26.3667 17.6162 26.7866C17.3537 27.2066 17.5112 27.7841 17.9837 27.9941L23.2862 30.8816C23.4437 30.9341 23.5487 30.9866 23.7062 30.9866C24.0212 30.9866 24.3362 30.8291 24.4937 30.5141C24.7037 30.0941 24.5462 29.5166 24.1262 29.3066Z" fill="#FFF951"/>
<path d="M64.7084 26.7866C64.4984 26.3667 63.9209 26.2092 63.5009 26.4191L58.1459 29.3066C57.7259 29.5166 57.5684 30.0941 57.7784 30.5141C57.9359 30.8291 58.2509 30.9866 58.5659 30.9866C58.7234 30.9866 58.8809 30.9341 58.9859 30.8816L64.3409 27.9941C64.7609 27.7841 64.9184 27.2066 64.7084 26.7866Z" fill="#FFF951"/>
</g>
<defs>
<clipPath id="clip0">
<rect x="12.7693" y="12.7692" width="56.7521" height="56.7521" fill="white"/>
</clipPath>
</defs>
</svg>
