<svg width="34" height="34" viewBox="0 0 34 34" fill="none" xmlns="http://www.w3.org/2000/svg">
<path d="M33.7925 31.7893L23.9157 21.9125C25.7891 19.5998 26.9167 16.6596 26.9167 13.4584C26.9167 6.03747 20.8792 0 13.4583 0C6.03741 0 0 6.03747 0 13.4584C0 20.8793 6.03747 26.9168 13.4584 26.9168C16.6596 26.9168 19.5998 25.7891 21.9125 23.9158L31.7893 33.7926C32.066 34.0692 32.5144 34.0692 32.7911 33.7926L33.7926 32.791C34.0692 32.5144 34.0692 32.0659 33.7925 31.7893ZM13.4584 24.0834C7.59942 24.0834 2.83336 19.3174 2.83336 13.4584C2.83336 7.59942 7.59942 2.83336 13.4584 2.83336C19.3174 2.83336 24.0834 7.59942 24.0834 13.4584C24.0834 19.3174 19.3174 24.0834 13.4584 24.0834Z" fill="#FFF951"/>
</svg>
